<svg width="33" height="32" viewBox="0 0 33 32" fill="none" xmlns="http://www.w3.org/2000/svg">
<path d="M10.5373 17.0265H5.19191C4.62354 17.0265 4.1499 16.5732 4.1499 15.9999C4.1499 15.4399 4.62354 14.9732 5.19191 14.9732H10.5373L10.5377 8.59999C10.5377 5.33332 13.2914 2.66666 16.6647 2.66666H23.3838C26.7433 2.66666 29.4832 5.33332 29.4832 8.58666V23.4133C29.4832 26.68 26.7433 29.3333 23.3562 29.3333H16.6509C13.2914 29.3333 10.5377 26.68 10.5377 23.4267V17.0267H19.0742L16.8712 19.16C16.4582 19.56 16.4582 20.2133 16.8712 20.6133C17.0777 20.8133 17.3531 20.9067 17.6285 20.9067C17.8901 20.9067 18.1655 20.8133 18.372 20.6133L22.3924 16.7333C22.5989 16.5467 22.7091 16.28 22.7091 16C22.7091 15.7333 22.5989 15.4667 22.3924 15.28L18.372 11.4C17.9589 11 17.2843 11 16.8712 11.4C16.4582 11.8 16.4582 12.4533 16.8712 12.8533L19.0742 14.9733H10.5377L10.5373 17.0265Z" fill="#6D737A"/>
</svg>
