<svg width="32" height="33" viewBox="0 0 32 33" fill="none" xmlns="http://www.w3.org/2000/svg">
<path d="M9.72086 17.4747H4.3755C3.80714 17.4747 3.3335 17.0214 3.3335 16.4481C3.3335 15.8881 3.80714 15.4214 4.3755 15.4214H9.72086L9.72126 9.0482C9.72126 5.78153 12.475 3.11487 15.8483 3.11487H22.5673C25.9269 3.11487 28.6668 5.78153 28.6668 9.03487V23.8615C28.6668 27.1282 25.9269 29.7815 22.5398 29.7815H15.8345C12.475 29.7815 9.72126 27.1282 9.72126 23.8749V17.4749H18.2578L16.0548 19.6082C15.6418 20.0082 15.6418 20.6615 16.0548 21.0615C16.2613 21.2615 16.5367 21.3549 16.8121 21.3549C17.0737 21.3549 17.3491 21.2615 17.5556 21.0615L21.576 17.1815C21.7825 16.9949 21.8927 16.7282 21.8927 16.4482C21.8927 16.1815 21.7825 15.9149 21.576 15.7282L17.5556 11.8482C17.1425 11.4482 16.4679 11.4482 16.0548 11.8482C15.6418 12.2482 15.6418 12.9015 16.0548 13.3015L18.2578 15.4215H9.72126L9.72086 17.4747Z" fill="#8CA2B7"/>
</svg>
