<svg width="40" height="40" viewBox="0 0 40 40" fill="none" xmlns="http://www.w3.org/2000/svg">
<path d="M25.6391 14.4298C24.3068 13.0976 23.1763 11.8157 22.5753 10.9327C22.5637 10.9212 22.0244 10.1026 21.8881 9.78618C21.7024 9.3186 21.6804 8.78763 21.8227 8.29302C21.9512 7.9125 22.1583 7.58192 22.4389 7.30133C22.7428 7.02056 23.4813 6.66015 23.7867 6.53224C25.7661 5.65613 30.3057 4.73778 32.457 4.79571C32.8106 4.79439 33.2159 4.81601 33.317 4.81526C33.8114 4.87638 34.2644 5.09973 34.6284 5.46365C34.9563 5.79156 35.1811 6.21999 35.2398 6.68851C35.2789 6.92334 35.284 7.31801 35.2841 7.50067L35.2836 7.59888C35.3579 9.81354 34.4122 14.2004 33.6131 16.1055C33.6249 16.1172 33.2259 17.0671 32.8746 17.5298L32.7804 17.6428L32.7295 17.6937C32.1422 18.281 31.2674 18.5025 30.4583 18.2546C30.0163 18.118 29.0343 17.4179 29.0084 17.4181C28.14 16.7794 26.9083 15.699 25.6391 14.4298ZM16.2446 23.7252C15.718 23.1986 15.6863 22.3634 16.1452 21.786L16.2598 21.6575L21.0092 16.3449C21.7427 15.6114 22.9216 15.6027 23.6443 16.3254C24.3218 17.003 24.3576 18.0826 23.7551 18.8192L23.6261 18.9618L18.3122 23.7099C17.7367 24.2854 16.8117 24.2923 16.2446 23.7252ZM5.3702 34.5859C5.04486 34.2606 4.82002 33.8321 4.75871 33.3636C4.72697 33.1671 4.71831 32.8601 4.71627 32.6575L4.71622 32.452C4.64448 30.2373 5.58756 25.8505 6.38666 23.9455C6.37605 23.9349 6.77514 22.9829 7.12636 22.5199L7.22062 22.4068L7.27151 22.3559C7.85749 21.77 8.73353 21.5498 9.54135 21.7964C9.98469 21.9317 10.9653 22.6331 10.9912 22.6329C11.8596 23.2716 13.0914 24.352 14.3606 25.6212C15.6928 26.9534 16.8234 28.2353 17.4244 29.1183C17.4373 29.1311 17.9753 29.9485 18.1116 30.2648C18.2986 30.7311 18.3192 31.2634 18.177 31.758C18.0485 32.1385 17.8414 32.4691 17.5621 32.7483C17.2569 33.0304 16.5197 33.3895 16.2157 33.5187C14.2337 34.3948 9.69544 35.3144 7.54418 35.2538C7.18921 35.2565 6.7839 35.2348 6.68285 35.2356C6.18974 35.1757 5.73541 34.9511 5.3702 34.5859ZM16.3553 23.7251C15.6778 23.0476 15.6431 21.9691 16.2458 21.2326L16.3748 21.0901L21.6876 16.3405C22.2631 15.765 23.1881 15.7581 23.7552 16.3252C24.2818 16.8518 24.3135 17.687 23.8545 18.2645L23.7399 18.3929L18.9917 23.7069C18.2582 24.4404 17.078 24.4478 16.3553 23.7251Z" fill="#8CA2B7"/>
</svg>
