<svg width="32" height="32" viewBox="0 0 32 32" fill="none" xmlns="http://www.w3.org/2000/svg">
<path d="M1.84674 24.9102C0.388648 26.3683 0.388653 28.7323 1.84674 30.1904C3.30484 31.6485 5.66887 31.6485 7.12696 30.1904L11.3437 25.9737C13.5562 23.7611 14.6625 22.6549 16.0372 22.6549C17.4119 22.6549 18.5182 23.7611 20.7308 25.9737L24.9475 30.1904C26.4056 31.6485 28.7696 31.6485 30.2277 30.1904C31.6858 28.7323 31.6858 26.3683 30.2277 24.9102L26.011 20.6935C23.7984 18.4809 22.6921 17.3746 22.6921 15.9999C22.6921 14.6252 23.7984 13.519 26.011 11.3064L30.2276 7.08979C31.6857 5.6317 31.6857 3.26766 30.2276 1.80957C28.7695 0.35148 26.4055 0.35148 24.9474 1.80957L20.7308 6.02619C18.5182 8.23874 17.4119 9.34502 16.0372 9.34502C14.6625 9.34502 13.5562 8.23874 11.3437 6.0262L7.12708 1.80958C5.66899 0.351483 3.30495 0.351488 1.84686 1.80958C0.388768 3.26767 0.388769 5.6317 1.84686 7.0898L6.06348 11.3064C8.27603 13.519 9.38231 14.6252 9.38231 15.9999C9.38231 17.3746 8.27603 18.4809 6.06348 20.6935L1.84674 24.9102Z" fill="#8CA2B7" fill-opacity="0.4"/>
</svg>
