<svg width="164" height="164" viewBox="0 0 164 164" fill="none" xmlns="http://www.w3.org/2000/svg">
<g opacity="0.1">
<g style="mix-blend-mode:multiply">
<path fill-rule="evenodd" clip-rule="evenodd" d="M81.9999 112.601C98.9002 112.601 112.601 98.9003 112.601 82C112.601 65.0997 98.9002 51.3993 81.9999 51.3993C65.0996 51.3993 51.3992 65.0997 51.3992 82C51.3992 98.9003 65.0996 112.601 81.9999 112.601ZM81.9999 130.601C108.841 130.601 130.601 108.841 130.601 82C130.601 55.1585 108.841 33.3993 81.9999 33.3993C55.1585 33.3993 33.3992 55.1585 33.3992 82C33.3992 108.841 55.1585 130.601 81.9999 130.601Z" fill="#F49E5F"/>
</g>
<g style="mix-blend-mode:multiply">
<path fill-rule="evenodd" clip-rule="evenodd" d="M47.794 103.478C44.2793 106.993 44.2793 112.691 47.794 116.206C51.3087 119.721 57.0072 119.721 60.5219 116.206L70.6863 106.041C76.0197 100.708 78.6863 98.0415 82.0001 98.0415C85.3138 98.0415 87.9804 100.708 93.3138 106.041L103.478 116.206C106.993 119.721 112.691 119.721 116.206 116.206C119.721 112.691 119.721 106.993 116.206 103.478L106.042 93.3136C100.708 87.9802 98.0417 85.3136 98.0417 81.9998C98.0417 78.6861 100.708 76.0195 106.042 70.6861L116.206 60.522C119.721 57.0073 119.721 51.3088 116.206 47.7941C112.691 44.2794 106.993 44.2794 103.478 47.7941L93.3138 57.9582C87.9804 63.2915 85.3138 65.9582 82 65.9582C78.6863 65.9582 76.0197 63.2916 70.6863 57.9582L60.5222 47.7941C57.0075 44.2794 51.309 44.2794 47.7943 47.7941C44.2796 51.3088 44.2796 57.0073 47.7943 60.522L57.9584 70.6861C63.2917 76.0195 65.9584 78.6861 65.9584 81.9998C65.9584 85.3136 63.2917 87.9802 57.9584 93.3136L47.794 103.478Z" fill="#8685FB"/>
</g>
</g>
</svg>
