<svg width="98" height="98" viewBox="0 0 98 98" fill="none" xmlns="http://www.w3.org/2000/svg">
<g opacity="0.07">
<path fill-rule="evenodd" clip-rule="evenodd" d="M49.0744 79.5492C65.9747 79.5492 79.6751 65.8488 79.6751 48.9485C79.6751 32.0482 65.9747 18.3478 49.0744 18.3478C32.174 18.3478 18.4736 32.0482 18.4736 48.9485C18.4736 65.8488 32.174 79.5492 49.0744 79.5492ZM49.0744 97.5492C75.9158 97.5492 97.6751 75.7899 97.6751 48.9485C97.6751 22.1071 75.9158 0.347778 49.0744 0.347778C22.2329 0.347778 0.473633 22.1071 0.473633 48.9485C0.473633 75.7899 22.2329 97.5492 49.0744 97.5492Z" fill="#D5E3EF" fill-opacity="0.5"/>
<path fill-rule="evenodd" clip-rule="evenodd" d="M14.8685 70.4265C11.3537 73.9412 11.3537 79.6397 14.8685 83.1544C18.3832 86.6691 24.0817 86.6691 27.5964 83.1544L37.7608 72.99C43.0941 67.6567 45.7608 64.99 49.0745 64.99C52.3882 64.99 55.0549 67.6567 60.3882 72.99L70.5526 83.1544C74.0674 86.6691 79.7658 86.6691 83.2806 83.1544C86.7953 79.6397 86.7953 73.9412 83.2806 70.4265L73.1161 60.2621C67.7828 54.9287 65.1161 52.2621 65.1161 48.9484C65.1161 45.6347 67.7828 42.968 73.1161 37.6347L83.2803 27.4705C86.795 23.9558 86.795 18.2573 83.2803 14.7426C79.7655 11.2279 74.0671 11.2279 70.5523 14.7426L60.3882 24.9067C55.0549 30.2401 52.3882 32.9067 49.0745 32.9067C45.7608 32.9067 43.0941 30.2401 37.7608 24.9067L27.5967 14.7426C24.0819 11.2279 18.3835 11.2279 14.8687 14.7426C11.354 18.2573 11.354 23.9558 14.8687 27.4705L25.0329 37.6347C30.3662 42.968 33.0329 45.6347 33.0329 48.9484C33.0329 52.2621 30.3662 54.9288 25.0329 60.2621L14.8685 70.4265Z" fill="#D5E3EF" fill-opacity="0.5"/>
</g>
</svg>
