<svg width="164" height="164" viewBox="0 0 164 164" fill="none" xmlns="http://www.w3.org/2000/svg">
<path fill-rule="evenodd" clip-rule="evenodd" d="M82.4415 112.653C99.3419 112.653 113.042 98.9523 113.042 82.052C113.042 65.1517 99.3419 51.4513 82.4415 51.4513C65.5412 51.4513 51.8408 65.1517 51.8408 82.052C51.8408 98.9523 65.5412 112.653 82.4415 112.653ZM82.4415 130.653C109.283 130.653 131.042 108.893 131.042 82.052C131.042 55.2106 109.283 33.4513 82.4415 33.4513C55.6001 33.4513 33.8408 55.2106 33.8408 82.052C33.8408 108.893 55.6001 130.653 82.4415 130.653Z" fill="#D5E3EF" fill-opacity="0.5"/>
<path fill-rule="evenodd" clip-rule="evenodd" d="M48.2356 103.53C44.7209 107.045 44.7209 112.743 48.2357 116.258C51.7504 119.773 57.4489 119.773 60.9636 116.258L71.128 106.093C76.4613 100.76 79.128 98.0935 82.4417 98.0935C85.7554 98.0935 88.4221 100.76 93.7554 106.093L103.92 116.258C107.435 119.773 113.133 119.773 116.648 116.258C120.162 112.743 120.162 107.045 116.648 103.53L106.483 93.3656C101.15 88.0322 98.4833 85.3656 98.4833 82.0519C98.4833 78.7381 101.15 76.0715 106.483 70.7382L116.647 60.574C120.162 57.0593 120.162 51.3608 116.647 47.8461C113.133 44.3314 107.434 44.3314 103.92 47.8461L93.7554 58.0102C88.4221 63.3436 85.7554 66.0102 82.4417 66.0102C79.128 66.0102 76.4613 63.3436 71.128 58.0102L60.9639 47.8461C57.4491 44.3314 51.7506 44.3314 48.2359 47.8461C44.7212 51.3608 44.7212 57.0593 48.2359 60.574L58.4001 70.7382C63.7334 76.0715 66.4001 78.7381 66.4001 82.0519C66.4001 85.3656 63.7334 88.0322 58.4001 93.3656L48.2356 103.53Z" fill="#D5E3EF" fill-opacity="0.5"/>
</svg>
