<svg width="165" height="165" viewBox="0 0 165 165" fill="none" xmlns="http://www.w3.org/2000/svg">
<g id="O-Turn" clip-path="url(#clip0_362_287)">
<g id="O-hi">
<g id="Ellipse 48 (Stroke)" filter="url(#filter0_d_362_287)">
<path fill-rule="evenodd" clip-rule="evenodd" d="M82.5309 112.652C99.4312 112.603 113.092 98.8631 113.042 81.9629C112.993 65.0626 99.2531 51.4021 82.3528 51.4513C65.4526 51.5005 51.7921 65.2407 51.8413 82.1409C51.8905 99.0412 65.6307 112.702 82.5309 112.652ZM82.5833 130.652C109.425 130.574 131.12 108.752 131.042 81.9105C130.964 55.0692 109.142 33.3733 82.3005 33.4514C55.4591 33.5295 33.7633 55.352 33.8414 82.1933C33.9195 109.035 55.742 130.731 82.5833 130.652Z" fill="url(#paint0_linear_362_287)"/>
<path fill-rule="evenodd" clip-rule="evenodd" d="M82.5309 112.652C99.4312 112.603 113.092 98.8631 113.042 81.9629C112.993 65.0626 99.2531 51.4021 82.3528 51.4513C65.4526 51.5005 51.7921 65.2407 51.8413 82.1409C51.8905 99.0412 65.6307 112.702 82.5309 112.652ZM82.5833 130.652C109.425 130.574 131.12 108.752 131.042 81.9105C130.964 55.0692 109.142 33.3733 82.3005 33.4514C55.4591 33.5295 33.7633 55.352 33.8414 82.1933C33.9195 109.035 55.742 130.731 82.5833 130.652Z" stroke="url(#paint1_linear_362_287)" stroke-linecap="round"/>
</g>
</g>
<circle id="Ellipse 55" cx="1.92651" cy="1.5365" r="1.48462" fill="#C4C4C4" fill-opacity="0.01"/>
<circle id="Ellipse 56" cx="1.92651" cy="162.567" r="1.48462" fill="#C4C4C4" fill-opacity="0.01"/>
<circle id="Ellipse 57" cx="162.957" cy="1.5365" r="1.48462" fill="#C4C4C4" fill-opacity="0.01"/>
<circle id="Ellipse 58" cx="162.957" cy="162.567" r="1.48462" fill="#C4C4C4" fill-opacity="0.01"/>
</g>
<defs>
<filter id="filter0_d_362_287" x="5.34106" y="12.9512" width="162.202" height="162.201" filterUnits="userSpaceOnUse" color-interpolation-filters="sRGB">
<feFlood flood-opacity="0" result="BackgroundImageFix"/>
<feColorMatrix in="SourceAlpha" type="matrix" values="0 0 0 0 0 0 0 0 0 0 0 0 0 0 0 0 0 0 127 0" result="hardAlpha"/>
<feOffset dx="4" dy="12"/>
<feGaussianBlur stdDeviation="16"/>
<feColorMatrix type="matrix" values="0 0 0 0 0.958333 0 0 0 0 0.400316 0 0 0 0 0 0 0 0 0.42 0"/>
<feBlend mode="normal" in2="BackgroundImageFix" result="effect1_dropShadow_362_287"/>
<feBlend mode="normal" in="SourceGraphic" in2="effect1_dropShadow_362_287" result="shape"/>
</filter>
<linearGradient id="paint0_linear_362_287" x1="25.3251" y1="99.1632" x2="177.102" y2="40.6239" gradientUnits="userSpaceOnUse">
<stop stop-color="#F8AC75"/>
<stop offset="1" stop-color="#E6660A"/>
</linearGradient>
<linearGradient id="paint1_linear_362_287" x1="30.2217" y1="118.142" x2="131.627" y2="112.703" gradientUnits="userSpaceOnUse">
<stop stop-color="white"/>
<stop offset="1" stop-color="#CD5B0A"/>
</linearGradient>
<clipPath id="clip0_362_287">
<rect width="164" height="164" fill="white" transform="translate(0.441895 0.0518799)"/>
</clipPath>
</defs>
</svg>
