<svg width="166" height="169" viewBox="0 0 166 169" fill="none" xmlns="http://www.w3.org/2000/svg">
<g filter="url(#filter0_dd_197_249)">
<mask id="path-1-outside-1_197_249" maskUnits="userSpaceOnUse" x="44.1577" y="44.1581" width="76" height="76" fill="black">
<rect fill="white" x="44.1577" y="44.1581" width="76" height="76"/>
<path fill-rule="evenodd" clip-rule="evenodd" d="M47.7937 103.478C44.279 106.993 44.279 112.691 47.7938 116.206C51.3085 119.721 57.007 119.721 60.5217 116.206L70.6861 106.041C76.0194 100.708 78.6861 98.0415 81.9998 98.0415C85.3135 98.0415 87.9802 100.708 93.3135 106.041L103.478 116.206C106.993 119.721 112.691 119.721 116.206 116.206C119.721 112.691 119.721 106.993 116.206 103.478L106.041 93.3136C100.708 87.9802 98.0414 85.3136 98.0414 81.9999C98.0414 78.6861 100.708 76.0195 106.041 70.6862L116.206 60.522C119.72 57.0073 119.72 51.3088 116.206 47.7941C112.691 44.2794 106.992 44.2794 103.478 47.7941L93.3135 57.9582C87.9802 63.2916 85.3135 65.9582 81.9998 65.9582C78.6861 65.9582 76.0194 63.2916 70.6861 57.9582L60.522 47.7941C57.0072 44.2794 51.3088 44.2794 47.794 47.7941C44.2793 51.3088 44.2793 57.0073 47.794 60.522L57.9582 70.6861C63.2915 76.0195 65.9582 78.6861 65.9582 81.9999C65.9582 85.3136 63.2915 87.9802 57.9582 93.3136L47.7937 103.478Z"/>
</mask>
<path fill-rule="evenodd" clip-rule="evenodd" d="M47.7937 103.478C44.279 106.993 44.279 112.691 47.7938 116.206C51.3085 119.721 57.007 119.721 60.5217 116.206L70.6861 106.041C76.0194 100.708 78.6861 98.0415 81.9998 98.0415C85.3135 98.0415 87.9802 100.708 93.3135 106.041L103.478 116.206C106.993 119.721 112.691 119.721 116.206 116.206C119.721 112.691 119.721 106.993 116.206 103.478L106.041 93.3136C100.708 87.9802 98.0414 85.3136 98.0414 81.9999C98.0414 78.6861 100.708 76.0195 106.041 70.6862L116.206 60.522C119.72 57.0073 119.72 51.3088 116.206 47.7941C112.691 44.2794 106.992 44.2794 103.478 47.7941L93.3135 57.9582C87.9802 63.2916 85.3135 65.9582 81.9998 65.9582C78.6861 65.9582 76.0194 63.2916 70.6861 57.9582L60.522 47.7941C57.0072 44.2794 51.3088 44.2794 47.794 47.7941C44.2793 51.3088 44.2793 57.0073 47.794 60.522L57.9582 70.6861C63.2915 76.0195 65.9582 78.6861 65.9582 81.9999C65.9582 85.3136 63.2915 87.9802 57.9582 93.3136L47.7937 103.478Z" fill="url(#paint0_linear_197_249)"/>
<path d="M47.7938 116.206L48.5009 115.499L47.7938 116.206ZM47.7937 103.478L48.5009 104.185H48.5009L47.7937 103.478ZM60.5217 116.206L61.2288 116.913L60.5217 116.206ZM103.478 116.206L104.185 115.499L103.478 116.206ZM116.206 116.206L116.913 116.913H116.913L116.206 116.206ZM116.206 103.478L116.913 102.771L116.206 103.478ZM116.206 60.522L115.498 59.8149L116.206 60.522ZM116.206 47.7941L115.498 48.5012V48.5012L116.206 47.7941ZM103.478 47.7941L104.185 48.5012V48.5012L103.478 47.7941ZM60.522 47.7941L59.8149 48.5012V48.5012L60.522 47.7941ZM47.794 47.7941L48.5011 48.5012L47.794 47.7941ZM47.794 60.522L48.5011 59.8149H48.5011L47.794 60.522ZM93.3135 57.9582L92.6064 57.2511L93.3135 57.9582ZM70.6861 57.9582L69.979 58.6653L70.6861 57.9582ZM81.9998 65.9582V66.9582V65.9582ZM98.0414 81.9999H97.0414H98.0414ZM70.6861 106.041L69.979 105.334L70.6861 106.041ZM93.3135 106.041L92.6064 106.749L93.3135 106.041ZM81.9998 98.0415V97.0415V98.0415ZM48.5009 115.499C45.3767 112.375 45.3767 107.309 48.5009 104.185L47.0866 102.771C43.1814 106.676 43.1814 113.008 47.0867 116.913L48.5009 115.499ZM59.8146 115.499C56.6904 118.623 51.6251 118.623 48.5009 115.499L47.0867 116.913C50.9919 120.818 57.3235 120.818 61.2288 116.913L59.8146 115.499ZM69.979 105.334L59.8146 115.499L61.2288 116.913L71.3932 106.749L69.979 105.334ZM104.185 115.499L94.0206 105.334L92.6064 106.749L102.771 116.913L104.185 115.499ZM115.499 115.499C112.375 118.623 107.309 118.623 104.185 115.499L102.771 116.913C106.676 120.818 113.008 120.818 116.913 116.913L115.499 115.499ZM115.499 104.185C118.623 107.309 118.623 112.375 115.499 115.499L116.913 116.913C120.818 113.008 120.818 106.676 116.913 102.771L115.499 104.185ZM105.334 94.0207L115.499 104.185L116.913 102.771L106.749 92.6065L105.334 94.0207ZM115.498 59.8149L105.334 69.979L106.749 71.3933L116.913 61.2291L115.498 59.8149ZM115.498 48.5012C118.623 51.6254 118.623 56.6907 115.498 59.8149L116.913 61.2291C120.818 57.3239 120.818 50.9922 116.913 47.087L115.498 48.5012ZM104.185 48.5012C107.309 45.377 112.374 45.377 115.498 48.5012L116.913 47.087C113.007 43.1817 106.676 43.1817 102.771 47.087L104.185 48.5012ZM94.0206 58.6653L104.185 48.5012L102.771 47.087L92.6064 57.2511L94.0206 58.6653ZM59.8149 48.5012L69.979 58.6653L71.3932 57.2511L61.2291 47.087L59.8149 48.5012ZM48.5011 48.5012C51.6253 45.377 56.6907 45.377 59.8149 48.5012L61.2291 47.087C57.3238 43.1817 50.9922 43.1818 47.0869 47.087L48.5011 48.5012ZM48.5011 59.8149C45.377 56.6907 45.3769 51.6254 48.5011 48.5012L47.0869 47.087C43.1817 50.9922 43.1817 57.3239 47.0869 61.2291L48.5011 59.8149ZM58.6653 69.979L48.5011 59.8149L47.0869 61.2291L57.2511 71.3933L58.6653 69.979ZM48.5009 104.185L58.6653 94.0207L57.2511 92.6065L47.0866 102.771L48.5009 104.185ZM57.2511 71.3933C59.9377 74.0799 61.8801 76.0253 63.1631 77.7069C64.4286 79.3655 64.9582 80.6496 64.9582 81.9999H66.9582C66.9582 80.0364 66.1544 78.3303 64.7532 76.4938C63.3696 74.6804 61.3119 72.6257 58.6653 69.979L57.2511 71.3933ZM58.6653 94.0207C61.3119 91.374 63.3696 89.3194 64.7532 87.5059C66.1544 85.6694 66.9582 83.9633 66.9582 81.9999H64.9582C64.9582 83.3502 64.4286 84.6342 63.1631 86.2928C61.8801 87.9744 59.9377 89.9198 57.2511 92.6065L58.6653 94.0207ZM92.6064 57.2511C89.9197 59.9378 87.9744 61.8801 86.2927 63.1632C84.6341 64.4287 83.3501 64.9582 81.9998 64.9582V66.9582C83.9632 66.9582 85.6694 66.1544 87.5059 64.7532C89.3193 63.3696 91.3739 61.312 94.0206 58.6653L92.6064 57.2511ZM69.979 58.6653C72.6257 61.312 74.6803 63.3697 76.4937 64.7532C78.3302 66.1544 80.0364 66.9582 81.9998 66.9582V64.9582C80.6495 64.9582 79.3655 64.4287 77.7069 63.1632C76.0252 61.8801 74.0799 59.9378 71.3932 57.2511L69.979 58.6653ZM106.749 92.6065C104.062 89.9198 102.12 87.9744 100.836 86.2928C99.571 84.6342 99.0414 83.3502 99.0414 81.9999H97.0414C97.0414 83.9633 97.8452 85.6694 99.2464 87.5059C100.63 89.3194 102.688 91.374 105.334 94.0207L106.749 92.6065ZM105.334 69.979C102.688 72.6257 100.63 74.6804 99.2464 76.4938C97.8452 78.3303 97.0414 80.0364 97.0414 81.9999H99.0414C99.0414 80.6496 99.571 79.3655 100.836 77.7069C102.12 76.0253 104.062 74.0799 106.749 71.3933L105.334 69.979ZM71.3932 106.749C74.0799 104.062 76.0252 102.12 77.7069 100.837C79.3655 99.571 80.6495 99.0415 81.9998 99.0415V97.0415C80.0364 97.0415 78.3302 97.8453 76.4937 99.2465C74.6803 100.63 72.6257 102.688 69.979 105.334L71.3932 106.749ZM94.0206 105.334C91.3739 102.688 89.3193 100.63 87.5059 99.2465C85.6694 97.8453 83.9632 97.0415 81.9998 97.0415V99.0415C83.3501 99.0415 84.6341 99.571 86.2927 100.837C87.9744 102.12 89.9198 104.062 92.6064 106.749L94.0206 105.334Z" fill="url(#paint1_linear_197_249)" mask="url(#path-1-outside-1_197_249)"/>
</g>
<circle cx="1.48462" cy="1.48462" r="1.48462" fill="#C4C4C4" fill-opacity="0.01"/>
<circle cx="1.48462" cy="162.515" r="1.48462" fill="#C4C4C4" fill-opacity="0.01"/>
<circle cx="162.515" cy="1.48462" r="1.48462" fill="#C4C4C4" fill-opacity="0.01"/>
<circle cx="162.515" cy="162.515" r="1.48462" fill="#C4C4C4" fill-opacity="0.01"/>
<defs>
<filter id="filter0_dd_197_249" x="10.1577" y="13.1581" width="155.684" height="155.684" filterUnits="userSpaceOnUse" color-interpolation-filters="sRGB">
<feFlood flood-opacity="0" result="BackgroundImageFix"/>
<feColorMatrix in="SourceAlpha" type="matrix" values="0 0 0 0 0 0 0 0 0 0 0 0 0 0 0 0 0 0 127 0" result="hardAlpha"/>
<feOffset dx="6" dy="9"/>
<feGaussianBlur stdDeviation="20"/>
<feColorMatrix type="matrix" values="0 0 0 0 0.248667 0 0 0 0 0.233333 0 0 0 0 1 0 0 0 0.44 0"/>
<feBlend mode="normal" in2="BackgroundImageFix" result="effect1_dropShadow_197_249"/>
<feColorMatrix in="SourceAlpha" type="matrix" values="0 0 0 0 0 0 0 0 0 0 0 0 0 0 0 0 0 0 127 0" result="hardAlpha"/>
<feOffset dx="-6" dy="-6"/>
<feGaussianBlur stdDeviation="8"/>
<feColorMatrix type="matrix" values="0 0 0 0 1 0 0 0 0 1 0 0 0 0 1 0 0 0 0.6 0"/>
<feBlend mode="normal" in2="effect1_dropShadow_197_249" result="effect2_dropShadow_197_249"/>
<feBlend mode="normal" in="SourceGraphic" in2="effect2_dropShadow_197_249" result="shape"/>
</filter>
<linearGradient id="paint0_linear_197_249" x1="38.6645" y1="94.8453" x2="155.037" y2="91.4435" gradientUnits="userSpaceOnUse">
<stop stop-color="#8D8BFF"/>
<stop offset="1" stop-color="#585EE6"/>
</linearGradient>
<linearGradient id="paint1_linear_197_249" x1="45.1577" y1="45.1581" x2="112.951" y2="131.433" gradientUnits="userSpaceOnUse">
<stop stop-color="white"/>
<stop offset="1" stop-color="#444BE0"/>
</linearGradient>
</defs>
</svg>
