<svg width="165" height="165" viewBox="0 0 165 165" fill="none" xmlns="http://www.w3.org/2000/svg">
<g clip-path="url(#clip0_362_270)">
<g filter="url(#filter0_d_362_270)">
<mask id="path-1-outside-1_362_270" maskUnits="userSpaceOnUse" x="44.5991" y="44.2098" width="76" height="76" fill="black">
<rect fill="white" x="44.5991" y="44.2098" width="76" height="76"/>
<path fill-rule="evenodd" clip-rule="evenodd" d="M48.2352 103.53C44.7204 107.044 44.7204 112.743 48.2352 116.258C51.7499 119.772 57.4484 119.772 60.9631 116.258L71.1275 106.093C76.4608 100.76 79.1275 98.0933 82.4412 98.0933C85.7549 98.0933 88.4216 100.76 93.7549 106.093L103.919 116.258C107.434 119.772 113.133 119.772 116.647 116.258C120.162 112.743 120.162 107.044 116.647 103.53L106.483 93.3653C101.15 88.032 98.4828 85.3654 98.4828 82.0516C98.4828 78.7379 101.15 76.0713 106.483 70.7379L116.647 60.5738C120.162 57.0591 120.162 51.3606 116.647 47.8459C113.132 44.3312 107.434 44.3312 103.919 47.8459L93.7549 58.01C88.4216 63.3433 85.7549 66.01 82.4412 66.01C79.1275 66.01 76.4608 63.3433 71.1275 58.01L60.9634 47.8459C57.4486 44.3312 51.7502 44.3312 48.2354 47.8459C44.7207 51.3606 44.7207 57.0591 48.2354 60.5738L58.3996 70.7379C63.7329 76.0713 66.3996 78.7379 66.3996 82.0516C66.3996 85.3654 63.7329 88.032 58.3996 93.3654L48.2352 103.53Z"/>
</mask>
<path fill-rule="evenodd" clip-rule="evenodd" d="M48.2352 103.53C44.7204 107.044 44.7204 112.743 48.2352 116.258C51.7499 119.772 57.4484 119.772 60.9631 116.258L71.1275 106.093C76.4608 100.76 79.1275 98.0933 82.4412 98.0933C85.7549 98.0933 88.4216 100.76 93.7549 106.093L103.919 116.258C107.434 119.772 113.133 119.772 116.647 116.258C120.162 112.743 120.162 107.044 116.647 103.53L106.483 93.3653C101.15 88.032 98.4828 85.3654 98.4828 82.0516C98.4828 78.7379 101.15 76.0713 106.483 70.7379L116.647 60.5738C120.162 57.0591 120.162 51.3606 116.647 47.8459C113.132 44.3312 107.434 44.3312 103.919 47.8459L93.7549 58.01C88.4216 63.3433 85.7549 66.01 82.4412 66.01C79.1275 66.01 76.4608 63.3433 71.1275 58.01L60.9634 47.8459C57.4486 44.3312 51.7502 44.3312 48.2354 47.8459C44.7207 51.3606 44.7207 57.0591 48.2354 60.5738L58.3996 70.7379C63.7329 76.0713 66.3996 78.7379 66.3996 82.0516C66.3996 85.3654 63.7329 88.032 58.3996 93.3654L48.2352 103.53Z" fill="url(#paint0_linear_362_270)"/>
<path d="M48.2352 116.258L48.9423 115.551L48.2352 116.258ZM48.2352 103.53L48.9423 104.237H48.9423L48.2352 103.53ZM60.9631 116.258L61.6702 116.965L60.9631 116.258ZM103.919 116.258L104.626 115.551L103.919 116.258ZM116.647 116.258L117.354 116.965H117.354L116.647 116.258ZM116.647 103.53L117.354 102.823L116.647 103.53ZM116.647 60.5738L115.94 59.8667L116.647 60.5738ZM116.647 47.8459L115.94 48.553V48.553L116.647 47.8459ZM103.919 47.8459L104.626 48.553V48.553L103.919 47.8459ZM60.9634 47.8459L60.2563 48.553V48.553L60.9634 47.8459ZM48.2354 47.8459L48.9425 48.553L48.2354 47.8459ZM48.2354 60.5738L48.9426 59.8667H48.9426L48.2354 60.5738ZM93.7549 58.01L93.0478 57.3029L93.7549 58.01ZM71.1275 58.01L70.4204 58.7171L71.1275 58.01ZM82.4412 66.01V67.01V66.01ZM98.4828 82.0516H97.4828H98.4828ZM71.1275 106.093L70.4204 105.386L71.1275 106.093ZM93.7549 106.093L93.0478 106.8L93.7549 106.093ZM82.4412 98.0933V97.0933V98.0933ZM48.9423 115.551C45.8181 112.426 45.8181 107.361 48.9423 104.237L47.528 102.823C43.6228 106.728 43.6228 113.06 47.5281 116.965L48.9423 115.551ZM60.256 115.551C57.1318 118.675 52.0665 118.675 48.9423 115.551L47.5281 116.965C51.4333 120.87 57.765 120.87 61.6702 116.965L60.256 115.551ZM70.4204 105.386L60.256 115.551L61.6702 116.965L71.8346 106.8L70.4204 105.386ZM104.626 115.551L94.462 105.386L93.0478 106.8L103.212 116.965L104.626 115.551ZM115.94 115.551C112.816 118.675 107.751 118.675 104.626 115.551L103.212 116.965C107.117 120.87 113.449 120.87 117.354 116.965L115.94 115.551ZM115.94 104.237C119.064 107.361 119.064 112.426 115.94 115.551L117.354 116.965C121.26 113.06 121.26 106.728 117.354 102.823L115.94 104.237ZM105.776 94.0725L115.94 104.237L117.354 102.823L107.19 92.6582L105.776 94.0725ZM115.94 59.8667L105.776 70.0308L107.19 71.445L117.354 61.2809L115.94 59.8667ZM115.94 48.553C119.064 51.6772 119.064 56.7425 115.94 59.8667L117.354 61.2809C121.259 57.3757 121.259 51.044 117.354 47.1388L115.94 48.553ZM104.626 48.553C107.75 45.4288 112.816 45.4288 115.94 48.553L117.354 47.1388C113.449 43.2335 107.117 43.2335 103.212 47.1388L104.626 48.553ZM94.462 58.7171L104.626 48.553L103.212 47.1388L93.0478 57.3029L94.462 58.7171ZM60.2563 48.553L70.4204 58.7171L71.8346 57.3029L61.6705 47.1388L60.2563 48.553ZM48.9425 48.553C52.0667 45.4288 57.1321 45.4288 60.2563 48.553L61.6705 47.1388C57.7652 43.2335 51.4336 43.2335 47.5283 47.1388L48.9425 48.553ZM48.9426 59.8667C45.8184 56.7425 45.8184 51.6772 48.9425 48.553L47.5283 47.1388C43.6231 51.044 43.6231 57.3757 47.5283 61.2809L48.9426 59.8667ZM59.1067 70.0308L48.9426 59.8667L47.5283 61.2809L57.6925 71.445L59.1067 70.0308ZM48.9423 104.237L59.1067 94.0725L57.6925 92.6583L47.528 102.823L48.9423 104.237ZM57.6925 71.445C60.3791 74.1317 62.3215 76.0771 63.6045 77.7587C64.87 79.4173 65.3996 80.7013 65.3996 82.0516H67.3996C67.3996 80.0882 66.5958 78.3821 65.1946 76.5456C63.811 74.7321 61.7534 72.6775 59.1067 70.0308L57.6925 71.445ZM59.1067 94.0725C61.7534 91.4258 63.811 89.3711 65.1946 87.5577C66.5958 85.7212 67.3996 84.0151 67.3996 82.0516H65.3996C65.3996 83.4019 64.87 84.686 63.6045 86.3446C62.3215 88.0262 60.3791 89.9716 57.6925 92.6583L59.1067 94.0725ZM93.0478 57.3029C90.3611 59.9896 88.4158 61.9319 86.7341 63.215C85.0755 64.4805 83.7915 65.01 82.4412 65.01V67.01C84.4046 67.01 86.1108 66.2062 87.9473 64.805C89.7607 63.4214 91.8153 61.3638 94.462 58.7171L93.0478 57.3029ZM70.4204 58.7171C73.0671 61.3638 75.1217 63.4214 76.9351 64.805C78.7716 66.2062 80.4778 67.01 82.4412 67.01V65.01C81.0909 65.01 79.8069 64.4805 78.1483 63.215C76.4666 61.9319 74.5213 59.9896 71.8346 57.3029L70.4204 58.7171ZM107.19 92.6582C104.503 89.9716 102.561 88.0262 101.278 86.3446C100.012 84.686 99.4828 83.4019 99.4828 82.0516H97.4828C97.4828 84.0151 98.2866 85.7212 99.6878 87.5577C101.071 89.3711 103.129 91.4258 105.776 94.0725L107.19 92.6582ZM105.776 70.0308C103.129 72.6775 101.071 74.7321 99.6878 76.5456C98.2866 78.3821 97.4828 80.0882 97.4828 82.0516H99.4828C99.4828 80.7013 100.012 79.4173 101.278 77.7587C102.561 76.0771 104.503 74.1317 107.19 71.445L105.776 70.0308ZM71.8346 106.8C74.5213 104.114 76.4666 102.171 78.1483 100.888C79.8069 99.6228 81.0909 99.0933 82.4412 99.0933V97.0933C80.4778 97.0933 78.7716 97.8971 76.9351 99.2983C75.1217 100.682 73.0671 102.739 70.4204 105.386L71.8346 106.8ZM94.462 105.386C91.8154 102.739 89.7607 100.682 87.9473 99.2983C86.1108 97.8971 84.4046 97.0933 82.4412 97.0933V99.0933C83.7915 99.0933 85.0755 99.6228 86.7341 100.888C88.4158 102.171 90.3612 104.114 93.0478 106.8L94.462 105.386Z" fill="url(#paint1_linear_362_270)" mask="url(#path-1-outside-1_362_270)"/>
</g>
<circle cx="1.92602" cy="1.53637" r="1.48462" fill="#C4C4C4" fill-opacity="0.01"/>
<circle cx="1.92602" cy="162.567" r="1.48462" fill="#C4C4C4" fill-opacity="0.01"/>
<circle cx="162.957" cy="1.53637" r="1.48462" fill="#C4C4C4" fill-opacity="0.01"/>
<circle cx="162.957" cy="162.567" r="1.48462" fill="#C4C4C4" fill-opacity="0.01"/>
</g>
<defs>
<filter id="filter0_d_362_270" x="10.5991" y="13.2098" width="155.684" height="155.684" filterUnits="userSpaceOnUse" color-interpolation-filters="sRGB">
<feFlood flood-opacity="0" result="BackgroundImageFix"/>
<feColorMatrix in="SourceAlpha" type="matrix" values="0 0 0 0 0 0 0 0 0 0 0 0 0 0 0 0 0 0 127 0" result="hardAlpha"/>
<feOffset dx="6" dy="9"/>
<feGaussianBlur stdDeviation="20"/>
<feColorMatrix type="matrix" values="0 0 0 0 0.248667 0 0 0 0 0.233333 0 0 0 0 1 0 0 0 0.44 0"/>
<feBlend mode="normal" in2="BackgroundImageFix" result="effect1_dropShadow_362_270"/>
<feBlend mode="normal" in="SourceGraphic" in2="effect1_dropShadow_362_270" result="shape"/>
</filter>
<linearGradient id="paint0_linear_362_270" x1="39.1059" y1="94.8971" x2="155.478" y2="91.4953" gradientUnits="userSpaceOnUse">
<stop stop-color="#8D8BFF"/>
<stop offset="1" stop-color="#585EE6"/>
</linearGradient>
<linearGradient id="paint1_linear_362_270" x1="45.5991" y1="45.2098" x2="113.393" y2="131.485" gradientUnits="userSpaceOnUse">
<stop stop-color="white"/>
<stop offset="1" stop-color="#444BE0"/>
</linearGradient>
<clipPath id="clip0_362_270">
<rect width="164" height="164" fill="white" transform="translate(0.441406 0.0517578)"/>
</clipPath>
</defs>
</svg>
