<svg width="41" height="40" viewBox="0 0 41 40" fill="none" xmlns="http://www.w3.org/2000/svg">
<path fill-rule="evenodd" clip-rule="evenodd" d="M29.463 29.7636C30.3306 29.8869 30.7623 30.9411 30.0756 31.4873C26.485 34.3433 21.6201 35.523 16.835 34.2503C8.85203 32.127 4.11457 23.9818 6.2536 16.0575C7.81612 10.2689 12.6157 6.19946 18.201 5.25396C19.0658 5.10756 19.5618 6.13381 19.076 6.86383C18.2109 8.16398 17.5387 9.62248 17.11 11.2103C14.971 19.1347 19.7085 27.2799 27.6915 29.4032C28.2816 29.5602 28.873 29.6798 29.463 29.7636ZM25.4699 9.02862C24.9123 8.15386 25.9106 7.11076 26.7478 7.69503L28.2405 8.73483C28.8457 9.15664 29.5569 9.38174 30.2844 9.38174C31.0119 9.38174 31.7231 9.15664 32.3284 8.73483L33.8195 7.69503C34.6582 7.11076 35.6565 8.15386 35.0973 9.02862L34.1022 10.5883C33.6985 11.2207 33.4831 11.9639 33.4831 12.724C33.4831 13.4842 33.6985 14.2273 34.1022 14.8597L35.0973 16.4194C35.6565 17.2942 34.6582 18.3373 33.821 17.753L32.3284 16.7132C31.7231 16.2914 31.0119 16.0663 30.2844 16.0663C29.5569 16.0663 28.8457 16.2914 28.2405 16.7132L26.7494 17.753C25.9122 18.3373 24.9123 17.2942 25.4699 16.4194L26.465 14.8597C26.8687 14.2273 27.0841 13.4842 27.0841 12.724C27.0841 11.9639 26.8687 11.2207 26.465 10.5883L25.4699 9.02862Z" fill="#6D737A"/>
</svg>
