<svg width="31" height="32" viewBox="0 0 31 32" fill="none" xmlns="http://www.w3.org/2000/svg">
<path d="M21.2716 10.3008C19.9394 8.96855 18.8089 7.68665 18.2078 6.80372C18.1963 6.79214 17.6569 5.97352 17.5207 5.65715C17.335 5.18957 17.313 4.6586 17.4553 4.16399C17.5837 3.78347 17.7909 3.4529 18.0715 3.1723C18.3754 2.89153 19.1138 2.53113 19.4192 2.40321C21.3987 1.5271 25.9382 0.608748 28.0895 0.666681C28.4432 0.66536 28.8485 0.68698 28.9496 0.686232C29.444 0.747347 29.897 0.970701 30.2609 1.33462C30.5888 1.66253 30.8137 2.09096 30.8724 2.55948C30.9115 2.79431 30.9166 3.18898 30.9167 3.37164L30.9162 3.46985C30.9905 5.68451 30.0448 10.0714 29.2456 11.9764C29.2574 11.9882 28.8584 12.9381 28.5072 13.4008L28.413 13.5138L28.3621 13.5647C27.7748 14.152 26.9 14.3735 26.0909 14.1256C25.6489 13.9889 24.6669 13.2889 24.641 13.2891C23.7726 12.6504 22.5408 11.57 21.2716 10.3008ZM11.8771 19.5961C11.3505 19.0695 11.3188 18.2344 11.7778 17.6569L11.8924 17.5285L16.6418 12.2159C17.3753 11.4824 18.5542 11.4737 19.2769 12.1964C19.9544 12.8739 19.9902 13.9536 19.3877 14.6902L19.2587 14.8327L13.9448 19.5809C13.3692 20.1564 12.4442 20.1632 11.8771 19.5961ZM1.00277 30.4569C0.677426 30.1315 0.452593 29.7031 0.391281 29.2346C0.359536 29.0381 0.350874 28.7311 0.34884 28.5285L0.348787 28.3229C0.27705 26.1083 1.22013 21.7215 2.01922 19.8165C2.00862 19.8059 2.40771 18.8539 2.75893 18.3909L2.85318 18.2778L2.90408 18.2269C3.49006 17.6409 4.3661 17.4207 5.17392 17.6674C5.61725 17.8027 6.5979 18.5041 6.62381 18.5039C7.49221 19.1426 8.72396 20.223 9.99318 21.4922C11.3254 22.8244 12.4559 24.1063 13.057 24.9892C13.0698 25.0021 13.6079 25.8194 13.7441 26.1358C13.9311 26.6021 13.9518 27.1343 13.8095 27.629C13.6811 28.0095 13.474 28.34 13.1947 28.6193C12.8895 28.9014 12.1523 29.2605 11.8482 29.3897C9.86622 30.2658 5.32801 31.1854 3.17675 31.1248C2.82178 31.1274 2.41647 31.1058 2.31542 31.1066C1.82231 31.0467 1.36797 30.8221 1.00277 30.4569ZM11.9879 19.5961C11.3103 18.9186 11.2757 17.8401 11.8783 17.1035L12.0074 16.961L17.3201 12.2115C17.8957 11.636 18.8207 11.6291 19.3878 12.1962C19.9144 12.7228 19.9461 13.558 19.4871 14.1354L19.3725 14.2639L14.6242 19.5779C13.8908 20.3114 12.7106 20.3188 11.9879 19.5961Z" fill="#6D737A"/>
</svg>
