<svg width="34" height="35" viewBox="0 0 34 35" fill="none" xmlns="http://www.w3.org/2000/svg">
<path fill-rule="evenodd" clip-rule="evenodd" d="M17 0.912354C17.5636 0.912354 18.1041 1.13624 18.5026 1.53475C18.9011 1.93327 19.125 2.47377 19.125 3.03735V5.16235C19.125 5.72594 18.9011 6.26644 18.5026 6.66496C18.1041 7.06347 17.5636 7.28735 17 7.28735C16.4364 7.28735 15.8959 7.06347 15.4974 6.66496C15.0989 6.26644 14.875 5.72594 14.875 5.16235V3.03735C14.875 2.47377 15.0989 1.93327 15.4974 1.53475C15.8959 1.13624 16.4364 0.912354 17 0.912354ZM25.5 17.9124C25.5 20.1667 24.6045 22.3287 23.0104 23.9228C21.4163 25.5168 19.2543 26.4124 17 26.4124C14.7457 26.4124 12.5837 25.5168 10.9896 23.9228C9.39553 22.3287 8.5 20.1667 8.5 17.9124C8.5 15.658 9.39553 13.496 10.9896 11.9019C12.5837 10.3079 14.7457 9.41235 17 9.41235C19.2543 9.41235 21.4163 10.3079 23.0104 11.9019C24.6045 13.496 25.5 15.658 25.5 17.9124ZM24.514 28.4311L26.0164 29.9335C26.4172 30.3206 26.9539 30.5348 27.5111 30.5299C28.0683 30.5251 28.6012 30.3016 28.9952 29.9076C29.3892 29.5136 29.6127 28.9806 29.6176 28.4235C29.6224 27.8663 29.4082 27.3295 29.0211 26.9287L27.5187 25.4264C27.118 25.0393 26.5812 24.8251 26.024 24.8299C25.4669 24.8348 24.9339 25.0582 24.5399 25.4522C24.1459 25.8462 23.9224 26.3792 23.9176 26.9364C23.9127 27.4935 24.1269 28.0303 24.514 28.4311ZM29.019 5.89123C29.4174 6.28972 29.6412 6.83013 29.6412 7.3936C29.6412 7.95708 29.4174 8.49748 29.019 8.89598L27.5187 10.3984C27.3227 10.6013 27.0882 10.7632 26.829 10.8746C26.5697 10.9859 26.2909 11.0446 26.0087 11.047C25.7266 11.0495 25.4468 10.9957 25.1856 10.8889C24.9244 10.782 24.6872 10.6242 24.4877 10.4247C24.2881 10.2252 24.1304 9.98791 24.0235 9.72676C23.9167 9.4656 23.8629 9.18578 23.8653 8.90363C23.8678 8.62147 23.9264 8.34263 24.0378 8.08337C24.1492 7.82411 24.311 7.58963 24.514 7.3936L26.0164 5.89123C26.4149 5.49285 26.9553 5.26906 27.5187 5.26906C28.0822 5.26906 28.6226 5.49285 29.0211 5.89123H29.019ZM31.875 20.0374C32.4386 20.0374 32.9791 19.8135 33.3776 19.415C33.7761 19.0164 34 18.4759 34 17.9124C34 17.3488 33.7761 16.8083 33.3776 16.4098C32.9791 16.0112 32.4386 15.7874 31.875 15.7874H29.75C29.1864 15.7874 28.6459 16.0112 28.2474 16.4098C27.8489 16.8083 27.625 17.3488 27.625 17.9124C27.625 18.4759 27.8489 19.0164 28.2474 19.415C28.6459 19.8135 29.1864 20.0374 29.75 20.0374H31.875ZM17 28.5374C17.5636 28.5374 18.1041 28.7612 18.5026 29.1598C18.9011 29.5583 19.125 30.0988 19.125 30.6624V32.7874C19.125 33.3509 18.9011 33.8914 18.5026 34.29C18.1041 34.6885 17.5636 34.9124 17 34.9124C16.4364 34.9124 15.8959 34.6885 15.4974 34.29C15.0989 33.8914 14.875 33.3509 14.875 32.7874V30.6624C14.875 30.0988 15.0989 29.5583 15.4974 29.1598C15.8959 28.7612 16.4364 28.5374 17 28.5374ZM6.48125 10.3984C6.67854 10.5958 6.9128 10.7524 7.17063 10.8593C7.42846 10.9662 7.70482 11.0213 7.98394 11.0214C8.26305 11.0215 8.53945 10.9666 8.79736 10.8599C9.05527 10.7532 9.28963 10.5967 9.48706 10.3994C9.6845 10.2021 9.84114 9.96787 9.94804 9.71004C10.0549 9.45221 10.11 9.17585 10.1101 8.89673C10.1102 8.61761 10.0553 8.34121 9.94862 8.08331C9.8419 7.8254 9.68542 7.59104 9.48812 7.3936L7.98362 5.89123C7.58285 5.50414 7.04607 5.28995 6.4889 5.2948C5.93173 5.29964 5.39875 5.52312 5.00476 5.91711C4.61077 6.31111 4.38728 6.84408 4.38244 7.40125C4.3776 7.95842 4.59179 8.4952 4.97887 8.89598L6.48125 10.3984ZM9.486 28.4311L7.98362 29.9335C7.58285 30.3206 7.04607 30.5348 6.4889 30.5299C5.93173 30.5251 5.39875 30.3016 5.00476 29.9076C4.61077 29.5136 4.38728 28.9806 4.38244 28.4235C4.3776 27.8663 4.59179 27.3295 4.97887 26.9287L6.48125 25.4264C6.88203 25.0393 7.41881 24.8251 7.97598 24.8299C8.53315 24.8348 9.06612 25.0582 9.46011 25.4522C9.85411 25.8462 10.0776 26.3792 10.0824 26.9364C10.0873 27.4935 9.87309 28.0303 9.486 28.4311ZM4.25 20.0374C4.81359 20.0374 5.35409 19.8135 5.7526 19.415C6.15112 19.0164 6.375 18.4759 6.375 17.9124C6.375 17.3488 6.15112 16.8083 5.7526 16.4098C5.35409 16.0112 4.81359 15.7874 4.25 15.7874H2.125C1.56141 15.7874 1.02091 16.0112 0.622398 16.4098C0.223883 16.8083 0 17.3488 0 17.9124C0 18.4759 0.223883 19.0164 0.622398 19.415C1.02091 19.8135 1.56141 20.0374 2.125 20.0374H4.25Z" fill="#8CA2B7"/>
</svg>
