<svg width="36" height="32" viewBox="0 0 36 32" fill="none" xmlns="http://www.w3.org/2000/svg">
<path fill-rule="evenodd" clip-rule="evenodd" d="M12.8194 5.69772C17.3417 3.44374 22.663 4.45083 26.0815 7.82389C25.2271 8.30132 24.4932 8.75463 23.957 9.1323C23.955 9.13846 23.8924 9.1875 23.7953 9.26346C23.5048 9.49096 22.9058 9.95993 22.7035 10.2417C22.2116 10.9302 22.1439 11.8301 22.5144 12.5734L22.5465 12.6378L22.6238 12.7631C22.9511 13.243 23.7251 13.9229 23.7401 13.9155C25.2929 15.278 29.1527 17.5674 31.2764 18.1999L31.3694 18.2315C31.5426 18.2894 31.9185 18.4099 32.1536 18.4474C32.6165 18.5404 33.0941 18.4632 33.5092 18.2563C33.9698 18.0268 34.3254 17.6681 34.5403 17.2186C34.5516 17.1842 34.578 17.1135 34.6124 17.0215L34.6124 17.0213C34.6739 16.8569 34.7607 16.6245 34.8319 16.4093C35.5697 14.3876 36.1399 9.79134 35.9374 7.63617C35.9131 7.30598 35.8057 6.49129 35.6359 6.11397C35.4589 5.75882 35.2112 5.45747 34.8911 5.21486C34.4673 4.92294 33.9568 4.77524 33.4544 4.80289C33.1112 4.83168 32.1637 5.08326 32.149 5.09056C31.5348 5.26365 30.7254 5.57078 29.8136 5.96926C25.2912 0.644816 17.5533 -1.131 11.0351 2.11773C7.6746 3.79262 5.18529 6.53039 3.77157 9.72398C4.90391 10.2478 6.13214 10.8969 7.32463 11.587C8.35417 9.11175 10.242 6.98229 12.8194 5.69772ZM6.11452 26.0791C5.23218 26.4624 4.44919 26.758 3.85112 26.9265C3.83647 26.9338 2.88899 27.1853 2.54572 27.2141C2.04338 27.2418 1.5329 27.0941 1.10903 26.8022C0.788972 26.5596 0.541241 26.2582 0.364229 25.9031C0.194456 25.5257 0.0871098 24.711 0.062747 24.3809C-0.1397 22.2257 0.430466 17.6294 1.16831 15.6078C1.23949 15.3924 1.32636 15.16 1.38781 14.9955C1.42218 14.9036 1.4486 14.8329 1.45985 14.7984C1.67475 14.349 2.03036 13.9903 2.49098 13.7607C2.90603 13.5538 3.38367 13.4766 3.84659 13.5697C4.08168 13.6072 4.45755 13.7276 4.6308 13.7855L4.72377 13.8171C6.84748 14.4497 10.7073 16.739 12.2601 18.1016C12.275 18.0941 13.0491 18.774 13.3764 19.2539L13.4536 19.3792L13.4857 19.4436C13.8562 20.187 13.7886 21.0868 13.2967 21.7754C13.0943 22.0571 12.4954 22.5261 12.2048 22.7536C12.1078 22.8295 12.0452 22.8786 12.0432 22.8847C11.493 23.2722 10.7347 23.7393 9.85175 24.2304C13.2652 27.5977 18.588 28.6085 23.114 26.3527C25.7126 25.0575 27.6095 22.9043 28.6339 20.4058C29.8247 21.0963 31.0526 21.7468 32.1865 22.2734C30.7763 25.4889 28.2778 28.2483 24.8983 29.9327C18.3752 33.1839 10.6306 31.403 6.11452 26.0791Z" fill="#8CA2B7"/>
</svg>
