<svg width="30" height="30" viewBox="0 0 30 30" fill="none" xmlns="http://www.w3.org/2000/svg">
<path d="M16.4876 0.234482C18.2007 0.234482 19.7984 1.46699 20.3752 3.4425C20.587 4.26827 20.673 5.0958 20.7557 5.8934L20.8332 6.61881C21.1293 9.03978 21.1293 20.9333 20.8332 23.3719L20.7557 24.1237C20.6816 24.8826 20.6059 25.6679 20.3872 26.506C19.8105 28.4762 18.273 29.7545 16.5272 29.7545C16.4721 29.7545 16.417 29.7545 16.355 29.7527C15.3908 29.7527 14.3423 29.1611 13.7483 28.6452L7.95818 23.8227H4.98478C2.68974 23.8227 1.00935 22.1623 0.704603 19.5934C0.353373 17.0246 0.422242 12.6175 0.704603 10.2828C1.03689 7.85131 2.79649 6.16631 4.98478 6.16631H7.95818L13.6381 1.41417C14.3234 0.819052 15.532 0.230976 16.4876 0.234482ZM25.3084 5.57824C25.9954 5.09756 26.9354 5.27011 27.4055 5.96559C29.0686 8.41473 29.9863 11.621 29.9863 14.9945C29.9863 18.368 29.0686 21.5742 27.4055 24.0234C27.1231 24.4371 26.6617 24.6854 26.1675 24.6854C25.8594 24.6854 25.5615 24.5903 25.3084 24.4107C24.6266 23.9248 24.4579 22.9634 24.9314 22.2662C26.2485 20.3259 26.9733 17.7429 26.9733 14.9945C26.9733 12.2443 26.2485 9.66307 24.9314 7.72277C24.4579 7.02553 24.6266 6.06419 25.3084 5.57824Z" fill="#8CA2B7"/>
</svg>
