<svg width="31" height="30" viewBox="0 0 31 30" fill="none" xmlns="http://www.w3.org/2000/svg">
<path d="M16.9876 0.275895C18.7007 0.275895 20.2984 1.5084 20.8752 3.48391C21.087 4.30968 21.173 5.13721 21.2557 5.93481L21.3332 6.66022C21.6293 9.08119 21.6293 20.9748 21.3332 23.4133L21.2557 24.1651C21.1816 24.924 21.1059 25.7093 20.8872 26.5474C20.3105 28.5176 18.773 29.7959 17.0272 29.7959C16.9721 29.7959 16.917 29.7959 16.855 29.7941C15.8908 29.7941 14.8423 29.2025 14.2483 28.6866L8.45818 23.8641H5.48478C3.18974 23.8641 1.50935 22.2037 1.2046 19.6349C0.853373 17.066 0.922242 12.6589 1.2046 10.3243C1.53689 7.89272 3.29649 6.20772 5.48478 6.20772H8.45818L14.1381 1.45558C14.8234 0.860464 16.032 0.272389 16.9876 0.275895ZM25.8084 5.61965C26.4954 5.13898 27.4354 5.31152 27.9055 6.007C29.5686 8.45614 30.4863 11.6624 30.4863 15.0359C30.4863 18.4094 29.5686 21.6156 27.9055 24.0648C27.6231 24.4786 27.1617 24.7268 26.6675 24.7268C26.3594 24.7268 26.0615 24.6317 25.8084 24.4521C25.1266 23.9662 24.9579 23.0048 25.4314 22.3076C26.7485 20.3673 27.4733 17.7844 27.4733 15.0359C27.4733 12.2857 26.7485 9.70448 25.4314 7.76419C24.9579 7.06695 25.1266 6.1056 25.8084 5.61965Z" fill="#6D737A"/>
</svg>
