<svg width="30" height="30" viewBox="0 0 30 30" fill="none" xmlns="http://www.w3.org/2000/svg">
<path d="M27.3072 0.658664C27.8665 0.0994242 28.7581 0.0961345 29.3388 0.657019C29.903 1.22119 29.903 2.13243 29.3404 2.69496L2.69278 29.3411C2.42793 29.6059 2.04629 29.7622 1.67451 29.7622C1.31096 29.7622 0.95235 29.6141 0.662827 29.346C0.0969403 28.7588 0.0969403 27.8657 0.657892 27.3048L5.05009 22.9131H5.00568C2.81616 22.9131 1.22213 21.367 0.92603 18.9656C0.595381 16.5641 0.661182 12.4521 0.92603 10.2644C1.23694 7.99458 2.9165 6.43364 5.00568 6.43364H7.84991L13.2785 1.99262C13.9381 1.43338 15.1061 0.905388 16.0092 0.890584C17.6542 0.890584 19.1676 2.04032 19.7105 3.88252C19.9243 4.65723 20.0082 5.42865 20.074 6.17047L20.204 7.22151C20.2254 7.3827 20.2451 7.53732 20.2616 7.7018L27.3072 0.658664ZM19.5312 16.5856L19.6422 16.5977C20.2459 16.7506 20.3644 17.6175 20.3545 18.2984C20.3266 20.2755 20.2608 21.6506 20.1555 22.5009L20.0814 23.2016C20.0107 23.9106 19.9383 24.6441 19.7278 25.4271C19.18 27.266 17.711 28.4601 16.0413 28.4601C15.987 28.4601 15.9327 28.4601 15.8768 28.4585C14.9539 28.4585 13.9538 27.9058 13.3862 27.4239L11.3645 25.8597C10.5963 25.2889 10.8233 24.3777 11.2543 23.8497C11.4502 23.6104 12.9601 22.2011 14.5699 20.7142L15.2163 20.1178C16.939 18.5304 18.5912 17.0203 18.6996 16.9135C18.9217 16.6964 19.4185 16.5401 19.6422 16.5977L19.5312 16.5856Z" fill="#8CA2B7"/>
</svg>
