<svg width="98" height="98" viewBox="0 0 98 98" fill="none" xmlns="http://www.w3.org/2000/svg">
<path fill-rule="evenodd" clip-rule="evenodd" d="M48.6007 79.2015C65.501 79.2015 79.2015 65.501 79.2015 48.6007C79.2015 31.7004 65.501 18 48.6007 18C31.7004 18 18 31.7004 18 48.6007C18 65.501 31.7004 79.2015 48.6007 79.2015ZM48.6007 97.2015C75.4422 97.2015 97.2015 75.4422 97.2015 48.6007C97.2015 21.7593 75.4422 0 48.6007 0C21.7593 0 0 21.7593 0 48.6007C0 75.4422 21.7593 97.2015 48.6007 97.2015Z" fill="#D5E3EF" fill-opacity="0.5"/>
<path fill-rule="evenodd" clip-rule="evenodd" d="M14.3948 70.0787C10.8801 73.5934 10.8801 79.2919 14.3948 82.8066C17.9096 86.3214 23.608 86.3214 27.1228 82.8066L37.2872 72.6422C42.6205 67.3089 45.2872 64.6422 48.6009 64.6422C51.9146 64.6422 54.5813 67.3089 59.9146 72.6422L70.079 82.8066C73.5937 86.3214 79.2922 86.3214 82.8069 82.8066C86.3216 79.2919 86.3216 73.5934 82.8069 70.0787L72.6425 59.9143C67.3092 54.581 64.6425 51.9143 64.6425 48.6006C64.6425 45.2869 67.3092 42.6202 72.6425 37.2869L82.8066 27.1228C86.3214 23.608 86.3213 17.9095 82.8066 14.3948C79.2919 10.8801 73.5934 10.8801 70.0787 14.3948L59.9146 24.559C54.5812 29.8923 51.9146 32.559 48.6009 32.559C45.2872 32.559 42.6205 29.8923 37.2872 24.559L27.123 14.3948C23.6083 10.8801 17.9098 10.8801 14.3951 14.3948C10.8804 17.9096 10.8804 23.608 14.3951 27.1228L24.5592 37.2869C29.8926 42.6202 32.5592 45.2869 32.5592 48.6006C32.5592 51.9143 29.8926 54.581 24.5592 59.9143L14.3948 70.0787Z" fill="#D5E3EF" fill-opacity="0.5"/>
</svg>
