<svg width="98" height="98" viewBox="0 0 98 98" fill="none" xmlns="http://www.w3.org/2000/svg">
<g opacity="0.1">
<g style="mix-blend-mode:multiply">
<path fill-rule="evenodd" clip-rule="evenodd" d="M48.9999 79.6007C65.9002 79.6007 79.6006 65.9003 79.6006 49C79.6006 32.0997 65.9002 18.3993 48.9999 18.3993C32.0996 18.3993 18.3992 32.0997 18.3992 49C18.3992 65.9003 32.0996 79.6007 48.9999 79.6007ZM48.9999 97.6007C75.8413 97.6007 97.6006 75.8414 97.6006 49C97.6006 22.1585 75.8413 0.399261 48.9999 0.399261C22.1585 0.399261 0.39917 22.1585 0.39917 49C0.39917 75.8414 22.1585 97.6007 48.9999 97.6007Z" fill="#F49E5F"/>
</g>
<g style="mix-blend-mode:multiply">
<path fill-rule="evenodd" clip-rule="evenodd" d="M14.794 70.478C11.2793 73.9927 11.2793 79.6912 14.794 83.2059C18.3087 86.7206 24.0072 86.7206 27.5219 83.2059L37.6863 73.0415C43.0197 67.7082 45.6863 65.0415 49 65.0415C52.3138 65.0415 54.9804 67.7082 60.3138 73.0415L70.4782 83.2059C73.9929 86.7206 79.6914 86.7206 83.2061 83.2059C86.7208 79.6912 86.7208 73.9927 83.2061 70.478L73.0417 60.3136C67.7083 54.9802 65.0417 52.3136 65.0417 48.9999C65.0417 45.6861 67.7083 43.0195 73.0417 37.6862L83.2058 27.522C86.7205 24.0073 86.7205 18.3088 83.2058 14.7941C79.6911 11.2794 73.9926 11.2794 70.4779 14.7941L60.3138 24.9582C54.9804 30.2916 52.3138 32.9582 49 32.9582C45.6863 32.9582 43.0197 30.2916 37.6863 24.9582L27.5222 14.7941C24.0075 11.2794 18.309 11.2794 14.7943 14.7941C11.2796 18.3088 11.2796 24.0073 14.7943 27.522L24.9584 37.6861C30.2917 43.0195 32.9584 45.6861 32.9584 48.9999C32.9584 52.3136 30.2917 54.9802 24.9584 60.3136L14.794 70.478Z" fill="#8685FB"/>
</g>
</g>
</svg>
