<svg width="163" height="165" viewBox="0 0 163 165" fill="none" xmlns="http://www.w3.org/2000/svg">
<g filter="url(#filter0_dd_190_245)">
<path fill-rule="evenodd" clip-rule="evenodd" d="M77.831 102.143C94.7312 102.094 108.392 88.354 108.343 71.4538C108.293 54.5535 94.5531 40.8931 77.6529 40.9422C60.7527 40.9914 47.0922 54.7316 47.1413 71.6319C47.1905 88.5321 60.9307 102.193 77.831 102.143ZM77.8833 120.143C104.725 120.065 126.421 98.2427 126.342 71.4014C126.264 44.5601 104.442 22.8642 77.6005 22.9423C50.7592 23.0204 29.0633 44.8429 29.1414 71.6842C29.2195 98.5256 51.042 120.221 77.8833 120.143Z" fill="url(#paint0_linear_190_245)"/>
<path fill-rule="evenodd" clip-rule="evenodd" d="M77.831 102.143C94.7312 102.094 108.392 88.354 108.343 71.4538C108.293 54.5535 94.5531 40.8931 77.6529 40.9422C60.7527 40.9914 47.0922 54.7316 47.1413 71.6319C47.1905 88.5321 60.9307 102.193 77.831 102.143ZM77.8833 120.143C104.725 120.065 126.421 98.2427 126.342 71.4014C126.264 44.5601 104.442 22.8642 77.6005 22.9423C50.7592 23.0204 29.0633 44.8429 29.1414 71.6842C29.2195 98.5256 51.042 120.221 77.8833 120.143Z" stroke="url(#paint1_linear_190_245)" stroke-linecap="round"/>
</g>
<defs>
<filter id="filter0_dd_190_245" x="0.641113" y="0.442093" width="162.202" height="164.201" filterUnits="userSpaceOnUse" color-interpolation-filters="sRGB">
<feFlood flood-opacity="0" result="BackgroundImageFix"/>
<feColorMatrix in="SourceAlpha" type="matrix" values="0 0 0 0 0 0 0 0 0 0 0 0 0 0 0 0 0 0 127 0" result="hardAlpha"/>
<feOffset dx="4" dy="12"/>
<feGaussianBlur stdDeviation="16"/>
<feColorMatrix type="matrix" values="0 0 0 0 0.958333 0 0 0 0 0.400316 0 0 0 0 0 0 0 0 0.42 0"/>
<feBlend mode="normal" in2="BackgroundImageFix" result="effect1_dropShadow_190_245"/>
<feColorMatrix in="SourceAlpha" type="matrix" values="0 0 0 0 0 0 0 0 0 0 0 0 0 0 0 0 0 0 127 0" result="hardAlpha"/>
<feOffset dx="-6" dy="-6"/>
<feGaussianBlur stdDeviation="8"/>
<feColorMatrix type="matrix" values="0 0 0 0 1 0 0 0 0 1 0 0 0 0 1 0 0 0 0.6 0"/>
<feBlend mode="normal" in2="effect1_dropShadow_190_245" result="effect2_dropShadow_190_245"/>
<feBlend mode="normal" in="SourceGraphic" in2="effect2_dropShadow_190_245" result="shape"/>
</filter>
<linearGradient id="paint0_linear_190_245" x1="20.6251" y1="88.6542" x2="172.403" y2="30.1149" gradientUnits="userSpaceOnUse">
<stop stop-color="#F8AC75"/>
<stop offset="1" stop-color="#E6660A"/>
</linearGradient>
<linearGradient id="paint1_linear_190_245" x1="25.5218" y1="107.633" x2="126.927" y2="102.194" gradientUnits="userSpaceOnUse">
<stop stop-color="white"/>
<stop offset="1" stop-color="#CD5B0A"/>
</linearGradient>
</defs>
</svg>
