<svg width="156" height="156" viewBox="0 0 156 156" fill="none" xmlns="http://www.w3.org/2000/svg">
<g filter="url(#filter0_dd_52_23)">
<mask id="path-1-outside-1_52_23" maskUnits="userSpaceOnUse" x="34.1577" y="31.1581" width="76" height="76" fill="black">
<rect fill="white" x="34.1577" y="31.1581" width="76" height="76"/>
<path fill-rule="evenodd" clip-rule="evenodd" d="M37.7937 90.478C34.279 93.9927 34.279 99.6912 37.7938 103.206C41.3085 106.721 47.007 106.721 50.5217 103.206L60.6861 93.0415C66.0194 87.7082 68.6861 85.0415 71.9998 85.0415C75.3135 85.0415 77.9802 87.7082 83.3135 93.0415L93.4779 103.206C96.9926 106.721 102.691 106.721 106.206 103.206C109.721 99.6912 109.721 93.9927 106.206 90.478L96.0414 80.3136C90.7081 74.9802 88.0414 72.3136 88.0414 68.9999C88.0414 65.6861 90.7081 63.0195 96.0414 57.6862L106.206 47.522C109.72 44.0073 109.72 38.3088 106.206 34.7941C102.691 31.2794 96.9923 31.2794 93.4776 34.7941L83.3135 44.9582C77.9802 50.2916 75.3135 52.9582 71.9998 52.9582C68.6861 52.9582 66.0194 50.2916 60.6861 44.9582L50.522 34.7941C47.0072 31.2794 41.3088 31.2794 37.794 34.7941C34.2793 38.3088 34.2793 44.0073 37.794 47.522L47.9582 57.6861C53.2915 63.0195 55.9582 65.6861 55.9582 68.9999C55.9582 72.3136 53.2915 74.9802 47.9582 80.3136L37.7937 90.478Z"/>
</mask>
<path fill-rule="evenodd" clip-rule="evenodd" d="M37.7937 90.478C34.279 93.9927 34.279 99.6912 37.7938 103.206C41.3085 106.721 47.007 106.721 50.5217 103.206L60.6861 93.0415C66.0194 87.7082 68.6861 85.0415 71.9998 85.0415C75.3135 85.0415 77.9802 87.7082 83.3135 93.0415L93.4779 103.206C96.9926 106.721 102.691 106.721 106.206 103.206C109.721 99.6912 109.721 93.9927 106.206 90.478L96.0414 80.3136C90.7081 74.9802 88.0414 72.3136 88.0414 68.9999C88.0414 65.6861 90.7081 63.0195 96.0414 57.6862L106.206 47.522C109.72 44.0073 109.72 38.3088 106.206 34.7941C102.691 31.2794 96.9923 31.2794 93.4776 34.7941L83.3135 44.9582C77.9802 50.2916 75.3135 52.9582 71.9998 52.9582C68.6861 52.9582 66.0194 50.2916 60.6861 44.9582L50.522 34.7941C47.0072 31.2794 41.3088 31.2794 37.794 34.7941C34.2793 38.3088 34.2793 44.0073 37.794 47.522L47.9582 57.6861C53.2915 63.0195 55.9582 65.6861 55.9582 68.9999C55.9582 72.3136 53.2915 74.9802 47.9582 80.3136L37.7937 90.478Z" fill="url(#paint0_linear_52_23)"/>
<path d="M37.7938 103.206L38.5009 102.499L37.7938 103.206ZM37.7937 90.478L38.5009 91.1851H38.5009L37.7937 90.478ZM50.5217 103.206L51.2288 103.913L50.5217 103.206ZM93.4779 103.206L94.185 102.499L93.4779 103.206ZM106.206 103.206L106.913 103.913H106.913L106.206 103.206ZM106.206 90.478L106.913 89.7709L106.206 90.478ZM106.206 47.522L105.498 46.8149L106.206 47.522ZM106.206 34.7941L105.498 35.5012V35.5012L106.206 34.7941ZM93.4776 34.7941L94.1847 35.5012V35.5012L93.4776 34.7941ZM50.522 34.7941L49.8149 35.5012V35.5012L50.522 34.7941ZM37.794 34.7941L38.5011 35.5012L37.794 34.7941ZM37.794 47.522L38.5011 46.8149H38.5011L37.794 47.522ZM83.3135 44.9582L82.6064 44.2511L83.3135 44.9582ZM60.6861 44.9582L59.979 45.6653L60.6861 44.9582ZM71.9998 52.9582V53.9582V52.9582ZM88.0414 68.9999H87.0414H88.0414ZM60.6861 93.0415L59.979 92.3344L60.6861 93.0415ZM83.3135 93.0415L82.6064 93.7486L83.3135 93.0415ZM71.9998 85.0415V84.0415V85.0415ZM38.5009 102.499C35.3767 99.3746 35.3767 94.3093 38.5009 91.1851L37.0866 89.7709C33.1814 93.6761 33.1814 100.008 37.0867 103.913L38.5009 102.499ZM49.8146 102.499C46.6904 105.623 41.6251 105.623 38.5009 102.499L37.0867 103.913C40.9919 107.818 47.3235 107.818 51.2288 103.913L49.8146 102.499ZM59.979 92.3344L49.8146 102.499L51.2288 103.913L61.3932 93.7486L59.979 92.3344ZM94.185 102.499L84.0206 92.3344L82.6064 93.7486L92.7708 103.913L94.185 102.499ZM105.499 102.499C102.375 105.623 97.3092 105.623 94.185 102.499L92.7708 103.913C96.6761 107.818 103.008 107.818 106.913 103.913L105.499 102.499ZM105.499 91.1851C108.623 94.3093 108.623 99.3746 105.499 102.499L106.913 103.913C110.818 100.008 110.818 93.6761 106.913 89.7709L105.499 91.1851ZM95.3343 81.0207L105.499 91.1851L106.913 89.7709L96.7485 79.6065L95.3343 81.0207ZM105.498 46.8149L95.3343 56.979L96.7485 58.3933L106.913 48.2291L105.498 46.8149ZM105.498 35.5012C108.623 38.6254 108.623 43.6907 105.498 46.8149L106.913 48.2291C110.818 44.3239 110.818 37.9922 106.913 34.087L105.498 35.5012ZM94.1847 35.5012C97.3089 32.377 102.374 32.377 105.498 35.5012L106.913 34.087C103.007 30.1817 96.6758 30.1817 92.7705 34.087L94.1847 35.5012ZM84.0206 45.6653L94.1847 35.5012L92.7705 34.087L82.6064 44.2511L84.0206 45.6653ZM49.8149 35.5012L59.979 45.6653L61.3932 44.2511L51.2291 34.087L49.8149 35.5012ZM38.5011 35.5012C41.6253 32.377 46.6907 32.377 49.8149 35.5012L51.2291 34.087C47.3238 30.1817 40.9922 30.1818 37.0869 34.087L38.5011 35.5012ZM38.5011 46.8149C35.377 43.6907 35.3769 38.6254 38.5011 35.5012L37.0869 34.087C33.1817 37.9922 33.1817 44.3239 37.0869 48.2291L38.5011 46.8149ZM48.6653 56.979L38.5011 46.8149L37.0869 48.2291L47.2511 58.3933L48.6653 56.979ZM38.5009 91.1851L48.6653 81.0207L47.2511 79.6065L37.0866 89.7709L38.5009 91.1851ZM47.2511 58.3933C49.9377 61.0799 51.8801 63.0253 53.1631 64.7069C54.4286 66.3655 54.9582 67.6496 54.9582 68.9999H56.9582C56.9582 67.0364 56.1544 65.3303 54.7532 63.4938C53.3696 61.6804 51.3119 59.6257 48.6653 56.979L47.2511 58.3933ZM48.6653 81.0207C51.3119 78.374 53.3696 76.3194 54.7532 74.5059C56.1544 72.6694 56.9582 70.9633 56.9582 68.9999H54.9582C54.9582 70.3502 54.4286 71.6342 53.1631 73.2928C51.8801 74.9744 49.9377 76.9198 47.2511 79.6065L48.6653 81.0207ZM82.6064 44.2511C79.9197 46.9378 77.9744 48.8801 76.2927 50.1632C74.6341 51.4287 73.3501 51.9582 71.9998 51.9582V53.9582C73.9632 53.9582 75.6694 53.1544 77.5059 51.7532C79.3193 50.3696 81.3739 48.312 84.0206 45.6653L82.6064 44.2511ZM59.979 45.6653C62.6257 48.312 64.6803 50.3697 66.4937 51.7532C68.3302 53.1544 70.0364 53.9582 71.9998 53.9582V51.9582C70.6495 51.9582 69.3655 51.4287 67.7069 50.1632C66.0252 48.8801 64.0799 46.9378 61.3932 44.2511L59.979 45.6653ZM96.7485 79.6065C94.0619 76.9198 92.1195 74.9744 90.8365 73.2928C89.571 71.6342 89.0414 70.3502 89.0414 68.9999H87.0414C87.0414 70.9633 87.8452 72.6694 89.2464 74.5059C90.63 76.3194 92.6876 78.374 95.3343 81.0207L96.7485 79.6065ZM95.3343 56.979C92.6876 59.6257 90.63 61.6804 89.2464 63.4938C87.8452 65.3303 87.0414 67.0364 87.0414 68.9999H89.0414C89.0414 67.6496 89.571 66.3655 90.8364 64.7069C92.1195 63.0253 94.0619 61.0799 96.7485 58.3933L95.3343 56.979ZM61.3932 93.7486C64.0799 91.0619 66.0252 89.1196 67.7069 87.8365C69.3655 86.571 70.6495 86.0415 71.9998 86.0415V84.0415C70.0364 84.0415 68.3302 84.8453 66.4937 86.2465C64.6803 87.6301 62.6257 89.6877 59.979 92.3344L61.3932 93.7486ZM84.0206 92.3344C81.3739 89.6877 79.3193 87.6301 77.5059 86.2465C75.6694 84.8453 73.9632 84.0415 71.9998 84.0415V86.0415C73.3501 86.0415 74.6341 86.571 76.2927 87.8365C77.9744 89.1196 79.9198 91.0619 82.6064 93.7486L84.0206 92.3344Z" fill="url(#paint1_linear_52_23)" mask="url(#path-1-outside-1_52_23)"/>
</g>
<defs>
<filter id="filter0_dd_52_23" x="0.157715" y="0.158051" width="155.684" height="155.684" filterUnits="userSpaceOnUse" color-interpolation-filters="sRGB">
<feFlood flood-opacity="0" result="BackgroundImageFix"/>
<feColorMatrix in="SourceAlpha" type="matrix" values="0 0 0 0 0 0 0 0 0 0 0 0 0 0 0 0 0 0 127 0" result="hardAlpha"/>
<feOffset dx="6" dy="9"/>
<feGaussianBlur stdDeviation="20"/>
<feColorMatrix type="matrix" values="0 0 0 0 0.248667 0 0 0 0 0.233333 0 0 0 0 1 0 0 0 0.44 0"/>
<feBlend mode="normal" in2="BackgroundImageFix" result="effect1_dropShadow_52_23"/>
<feColorMatrix in="SourceAlpha" type="matrix" values="0 0 0 0 0 0 0 0 0 0 0 0 0 0 0 0 0 0 127 0" result="hardAlpha"/>
<feOffset dx="-6" dy="-6"/>
<feGaussianBlur stdDeviation="8"/>
<feColorMatrix type="matrix" values="0 0 0 0 1 0 0 0 0 1 0 0 0 0 1 0 0 0 0.6 0"/>
<feBlend mode="normal" in2="effect1_dropShadow_52_23" result="effect2_dropShadow_52_23"/>
<feBlend mode="normal" in="SourceGraphic" in2="effect2_dropShadow_52_23" result="shape"/>
</filter>
<linearGradient id="paint0_linear_52_23" x1="28.6645" y1="81.8453" x2="145.037" y2="78.4435" gradientUnits="userSpaceOnUse">
<stop stop-color="#8D8BFF"/>
<stop offset="1" stop-color="#585EE6"/>
</linearGradient>
<linearGradient id="paint1_linear_52_23" x1="35.1577" y1="32.1581" x2="102.951" y2="118.433" gradientUnits="userSpaceOnUse">
<stop stop-color="white"/>
<stop offset="1" stop-color="#444BE0"/>
</linearGradient>
</defs>
</svg>
