<svg width="31" height="31" viewBox="0 0 31 31" fill="none" xmlns="http://www.w3.org/2000/svg">
<path d="M1.09357 24.2357C-0.364525 25.6938 -0.364521 28.0578 1.09357 29.5159C2.55166 30.974 4.9157 30.974 6.37379 29.5159L10.5905 25.2992C12.8031 23.0866 13.9094 21.9803 15.2841 21.9803C16.6588 21.9803 17.765 23.0866 19.9776 25.2992L24.1943 29.5159C25.6524 30.974 28.0164 30.974 29.4745 29.5159C30.9326 28.0578 30.9326 25.6938 29.4745 24.2357L25.2578 20.0189C23.0452 17.8064 21.939 16.7001 21.939 15.3254C21.939 13.9507 23.0452 12.8444 25.2578 10.6319L29.4744 6.41526C30.9325 4.95717 30.9325 2.59313 29.4744 1.13504C28.0163 -0.32305 25.6523 -0.32305 24.1942 1.13504L19.9776 5.35166C17.765 7.56421 16.6588 8.67049 15.2841 8.67049C13.9093 8.67049 12.8031 7.56421 10.5905 5.35167L6.3739 1.13505C4.91581 -0.323047 2.55178 -0.323042 1.09369 1.13505C-0.364406 2.59314 -0.364405 4.95717 1.09369 6.41527L5.31031 10.6319C7.52286 12.8444 8.62913 13.9507 8.62913 15.3254C8.62913 16.7001 7.52286 17.8064 5.3103 20.0189L1.09357 24.2357Z" fill="#7A7BF6"/>
</svg>
